# xmcd
#
# Track frame offsets: 
#        150
#        18910
#        40626
#        58646
#        76493
#        94973
#        114973
#        133735
#        154736
#        176003
#        195225
#        215393
#        233645
#        255003
#        280687
#        299876
#        318890
#
# Disc length: 4496 seconds
#
# Revision: 0
# Processed by: cddbd v1.5.2PL0 Copyright (c) Steve Scherf et al.
# Submitted via: ExactAudioCopyFreeDBPlugin 1.0
#
DISCID=de118e11
DTITLE=冷漠 - 网络3剑客
DYEAR=1900
DGENRE=
TTITLE0=造物弄人
TTITLE1=小三
TTITLE2=醉红颜
TTITLE3=这条街
TTITLE4=芙蓉小镇
TTITLE5=伤心城市
TTITLE6=情坎
TTITLE7=看透爱情看透你
TTITLE8=安娜
TTITLE9=只要有你陪在我身边
TTITLE10=有一种爱叫满足
TTITLE11=分手依然爱你
TTITLE12=明明都是月亮的错
TTITLE13=分手后的伤
TTITLE14=挥不去的情愁
TTITLE15=等你2009
TTITLE16=结局
EXTD=
EXTT0=
EXTT1=
EXTT2=
EXTT3=
EXTT4=
EXTT5=
EXTT6=
EXTT7=
EXTT8=
EXTT9=
EXTT10=
EXTT11=
EXTT12=
EXTT13=
EXTT14=
EXTT15=
EXTT16=
PLAYORDER=
